<svg version="1.1" id="Layer_1" xmlns="http://www.w3.org/2000/svg" x="0" y="0" viewBox="0 0 950 280" xml:space="preserve"><style>.st1{fill:#aecbfa}.st2{fill:#a8dab5}.st3{fill:#fbbc04}.st4{fill:#fde293}.st5{fill:#4285f4}.st6{fill:#34a853}.st7{fill:none;stroke:#0d652d;stroke-width:.5;stroke-miterlimit:10}.st8{fill:#ea4335}.st10,.st13,.st9{fill:none;stroke:#e37400;stroke-width:.5;stroke-miterlimit:10}.st10,.st13{stroke:#174ea6}.st13{stroke:#202124;stroke-width:.4585}</style><path fill="#fad2cf" d="M458.91 1.06h51.37v126.78h-51.37z"/><path class="st1" d="M863.5 1.06h51.37v126.78H863.5z"/><path class="st2" d="M2.8 1.06h51.37v126.78H2.8z"/><path class="st3" d="M194.04 127.84V1.06c-25.05 0-45.34 20.29-45.34 45.34v36.1c.01 25.05 20.29 45.34 45.34 45.34z"/><path class="st4" d="M194.04 1.06h57.45v126.78h-57.45z"/><path class="st1" d="M282.61 1.06l73.23 126.78V1.06z"/><path class="st5" d="M429.03 1.06h-73.19v126.78z"/><path class="st6" d="M54.21 1.06c35.01 0 63.41 28.4 63.41 63.41s-28.4 63.41-63.41 63.41V1.06z"/><path class="st7" d="M54.21 103.62c21.63 0 39.19-17.56 39.19-39.19S75.84 25.24 54.21 25.24h-25.7v30"/><path class="st3" d="M767.55 96.13C741.3 96.13 720 74.86 720 48.58s21.27-47.56 47.56-47.56v95.11z"/><path class="st8" d="M510.32 1.06h42.28v31.7h-42.28z"/><path class="st5" d="M831.18 1.06h32.32v31.7h-32.32zM914.88 1.06h32.32v31.7h-32.32z"/><path class="st8" d="M510.32 64.43h31.7v31.7h-31.7z"/><path class="st3" d="M767.55 1.06h42.25v31.7h-42.25z"/><path class="st4" d="M767.55 32.76v63.41h-42.28v31.7h42.25c26.25 0 47.56-21.27 47.56-47.56-.01-26.28-21.28-47.55-47.53-47.55z"/><path class="st9" d="M745.38 71.27a31.536 31.536 0 01-9.53-22.65c0-17.49 14.18-31.7 31.7-31.7h23.78"/><path class="st10" d="M847.36 17.2h83.7"/><path class="st6" d="M628.16 127.84V1.06c-25.05 0-45.34 20.29-45.34 45.34v36.1c0 25.05 20.29 45.34 45.34 45.34z"/><path class="st2" d="M628.16 1.06h57.45v126.78h-57.45z"/><path class="st7" d="M614.01 45.31l-8.18-.08M685.6 45.38h-56.28M685.6 83.52h-16.79M653.46 83.52H640.7"/><circle class="st10" cx="355.84" cy="75.85" r="8.07"/><circle class="st10" cx="384.01" cy="27.05" r="8.07"/><path class="st10" d="M379.98 34L359.8 68.97"/><circle class="st10" cx="327.62" cy="27.05" r="8.07"/><path class="st10" d="M331.66 34l20.18 34.97"/><path transform="rotate(-45.001 28.49 64.447)" class="st7" d="M21.98 57.94H35v13.02H21.98z"/><path transform="rotate(-45.001 661.128 83.511)" class="st7" d="M655.71 78.09h10.83v10.83h-10.83z"/><path transform="rotate(-45.001 621.822 45.379)" class="st7" d="M616.4 39.95h10.83v10.83H616.4z"/><circle class="st10" cx="889.21" cy="44.03" r="7.67"/><circle class="st10" cx="889.21" cy="73.41" r="7.67"/><circle class="st10" cx="889.21" cy="102.79" r="7.67"/><path class="st9" d="M752.54 111.99h14.98c17.52 0 31.7-14.18 31.7-31.7s-14.18-31.7-31.7-31.7"/><path fill="none" stroke="#a50e0e" stroke-width=".5" stroke-miterlimit="10" d="M517.27 80.17h-32.65v32.65"/><path fill="none" stroke="#a50e0e" stroke-width=".498" stroke-miterlimit="10" d="M531.37 16.87h-46.75v46.76"/><path class="st9" d="M251.53 45.38h-57.7M251.53 64.43h-57.7M251.53 83.52h-57.7"/><path class="st13" d="M640.74 183.87c17.52 0 31.7 14.18 31.7 31.7v31.7c0 17.49-14.18 31.7-31.7 31.7h-23.78M425.35 183.87c17.49 0 31.7 14.18 31.7 31.7v31.7c0 17.49-14.18 31.7-31.7 31.7s-31.7-14.18-31.7-31.7v-31.7c0-17.52 14.18-31.7 31.7-31.7zM533.88 184.16v94.78M328.93 278.94h-47.15v-15.85M281.78 263.09c0-12.25 9.93-22.18 22.18-22.18 15.74 0 28.54-12.76 28.54-28.54s-12.76-28.54-28.54-28.54h-22.18"/><path class="st13" d="M640.74 183.87c-17.49 0-31.7 14.18-31.7 31.7 0 17.49 14.18 31.7 31.7 31.7s31.7-14.18 31.7-31.7"/></svg>
